<svg fill="none" height="100" viewBox="0 0 100 100" width="100" xmlns="http://www.w3.org/2000/svg"><circle cx="50" cy="50" fill="#182b36" r="50"/><path d="m68.7455 59.2155c-.2038-.3472-.3378-.7326-.3942-1.1336-.0564-.4011-.034-.8096.0659-1.2016.0998-.392.2751-.7597.5156-1.0813.2404-.3217.5411-.5909.8845-.7918.6933-.4175 1.5186-.5404 2.2992-.3425.7807.198 1.4547.7011 1.878 1.4018.3245.6343.837 1.1469 1.4637 1.4641s1.3354.4227 2.0242.3013c2.0226-.2737 3.8905-1.2557 5.2871-2.7795-.9279-.5803-1.8916-1.0984-2.8849-1.5509-2.8539-1.3744-6.387-3.0793-6.6354-6.5691-1.4653-.2216-2.9059-.5894-4.3014-1.0982-1.158 2.1069-2.1793 4.2896-3.0572 6.5341-1.9954 4.7718-3.1053 7.4169-5.3462 8.081-3.4679 1.0592-5.3602-2.4727-7.032-5.5837-.2755-.5194-.6552-1.2225-1.0098-1.826-2.8828 3.032-5.5679 6.255-8.0377 9.6483-.4207.5637-1.0143.9658-1.6853 1.1414s-1.3802.1145-2.0131-.1735c-.6291-.2815-1.144-.7769-1.4579-1.4024s-.4075-1.3429-.265-2.031c.4547-2.179.8134-4.432 1.0928-6.5762-3.7915 4.4434-8.8311 8.5049-15.0257 9.2326-3.977.4169-7.9546-.7845-11.075-3.3451-1.2685-1.1026-2.2907-2.4719-2.9973-4.0149-.7065-1.5431-1.08093-3.2238-1.09772-4.9282-.08265-2.0847.30162-4.161 1.12352-6.0699.8218-1.9089 2.0593-3.5996 3.6176-4.9425 2.3574-2.0989 5.3108-3.3655 8.4244-3.613 1.7084-.0567 3.408.2738 4.9773.9679 1.5694.6941 2.9698 1.7347 4.1013 3.0475.2478.3148.4317.6772.5409 1.0659.1091.3888.1413.7959.0947 1.1976-.0467.4016-.1713.7897-.3664 1.1413-.1952.3516-.457.6597-.7701.9061-.6346.4996-1.433.7289-2.2286.64-.7957-.0889-1.5271-.4892-2.0417-1.1173-.5315-.5681-1.1745-1.0143-1.8865-1.3092-.7121-.2949-1.4771-.4319-2.2446-.4018-1.7077.2094-3.3121.949-4.5978 2.1195-.8847.7453-1.586 1.6934-2.0471 2.7677-.4611 1.0742-.6692 2.2446-.6075 3.4165-.0121.8506.1589 1.6936.5009 2.4688.3419.7753.8464 1.4638 1.4775 2.0166 1.8182 1.4287 4.0937 2.1057 6.3759 1.8968 8.7931-1.0387 15.2802-12.7152 17.0583-16.2666.3183-.6272.8338-1.1261 1.4632-1.4157.6294-.2897 1.3357-.3532 2.0047-.1804.6697.1599 1.2657.5502 1.6885 1.1059.4227.5557.6467 1.2432.6345 1.9477 0 .2402-.1002 3.6735-.562 8.3037 3.8256-4.1057 5.246-4.1539 6.0765-4.1816h.1412c2.8709 0 4.3945 2.8257 6.0103 5.8413l.3105.5758c.3757-.8581.7613-1.7654 1.0789-2.5363 2.4131-5.8023 4.0539-9.4091 6.7626-10.4222.5195-.1988 1.0732-.2873 1.6272-.2599.554.0273 1.0968.1699 1.5953.419 1.8426.8389 3.8218 1.3179 5.836 1.4124 1.143-.992 2.42-1.8093 3.7915-2.4265 3.7063-1.6884 6.9559-1.5888 8.9203.272.681.6023 1.1166 1.4445 1.2206 2.36.1041.9156-.131 1.8378-.6587 2.5843-1.2411 1.8013-4.5528 2.9345-8.4144 3.3019.545.2864 1.1169.5615 1.5647.7801 2.895 1.4124 6.4971 3.1326 6.6113 6.7384.1202 3.8142-4.4256 7.5298-8.7069 8.7841-1.112.3336-2.2641.5064-3.4229.5132-1.6724.0304-3.3221-.3996-4.7771-1.245-1.455-.8455-2.662-2.0755-3.495-3.5617" fill="#55e0ff"/></svg>